<svg id="Layer_1" data-name="Layer 1" xmlns="http://www.w3.org/2000/svg" viewBox="0 0 1366 768"><defs><style>.cls-1{fill:#fcb659;}.cls-2,.cls-3,.cls-4{fill:#ffc07b;}.cls-2{opacity:0.36;}.cls-3{opacity:0.71;}.cls-4{opacity:0.61;}</style></defs><title>bg</title><rect class="cls-1" width="1366" height="768"/><rect class="cls-2" x="814" y="-9" width="472" height="66" rx="33" ry="33" transform="translate(324.51 -735.43) rotate(45)"/><circle class="cls-3" cx="61.5" cy="672.5" r="156.5"/><path class="cls-4" d="M1444.88,245.21,1157.79-41.88a33.11,33.11,0,0,0-46.67,0h0a32.94,32.94,0,0,0-9.62,23.34,33.82,33.82,0,0,0,9.62,23.33l130.15,130.14,51.58,51.59-80.33,80.33-6.6-6.6-67.13-67.13a33,33,0,0,0-46.67,46.67l287.09,287.09a33.11,33.11,0,0,0,46.67,0h0a32.94,32.94,0,0,0,9.62-23.34,33.82,33.82,0,0,0-9.62-23.33q-95.37-95.37-190.73-190.73l80.33-80.33,82.73,82.73a33.11,33.11,0,0,0,46.67,0h0A33.11,33.11,0,0,0,1444.88,245.21Z"/></svg>